HIERARCHY
ROOT Hips
{
	OFFSET 55.310501 45.591206 43.872097
	CHANNELS 6 Xposition Yposition Zposition Zrotation Xrotation Yrotation
	JOINT Chest
	{
		OFFSET -0.153500 1.163101 7.852402
		CHANNELS 6 Xposition Yposition Zposition Zrotation Xrotation Yrotation
		JOINT Chest2
		{
			OFFSET 0.000000 0.000000 3.343300
			CHANNELS 6 Xposition Yposition Zposition Zrotation Xrotation Yrotation
			JOINT Neck
			{
				OFFSET 0.000000 0.000000 7.785500
				CHANNELS 6 Xposition Yposition Zposition Zrotation Xrotation Yrotation
				JOINT Head
				{
					OFFSET 0.000000 0.000000 2.173901
					CHANNELS 6 Xposition Yposition Zposition Zrotation Xrotation Yrotation
					End Site
					{
						OFFSET 0.000000 0.000000 10.528198
					}
				}
			}
			JOINT LeftCollar
			{
				OFFSET 2.676300 -1.652401 4.938301
				CHANNELS 6 Xposition Yposition Zposition Zrotation Xrotation Yrotation
				JOINT LeftShoulder
				{
					OFFSET 4.299000 0.000000 0.000000
					CHANNELS 6 Xposition Yposition Zposition Zrotation Xrotation Yrotation
					JOINT LeftElbow
					{
						OFFSET 0.000000 0.000000 -10.245102
						CHANNELS 6 Xposition Yposition Zposition Zrotation Xrotation Yrotation
						JOINT LeftWrist
						{
							OFFSET 0.000000 0.000000 -12.703300
							CHANNELS 6 Xposition Yposition Zposition Zrotation Xrotation Yrotation
							End Site
							{
								OFFSET 0.000000 0.000000 -2.173901
							}
						}
					}
				}
			}
			JOINT RightCollar
			{
				OFFSET -2.534599 -1.686401 5.195000
				CHANNELS 6 Xposition Yposition Zposition Zrotation Xrotation Yrotation
				JOINT RightShoulder
				{
					OFFSET -4.144100 0.000000 0.000000
					CHANNELS 6 Xposition Yposition Zposition Zrotation Xrotation Yrotation
					JOINT RightElbow
					{
						OFFSET 0.000000 0.000000 -10.116501
						CHANNELS 6 Xposition Yposition Zposition Zrotation Xrotation Yrotation
						JOINT RightWrist
						{
							OFFSET 0.000000 0.000000 -12.937801
							CHANNELS 6 Xposition Yposition Zposition Zrotation Xrotation Yrotation
							End Site
							{
								OFFSET 0.000000 0.000000 -2.173901
							}
						}
					}
				}
			}
		}
	}
	JOINT LeftHip
	{
		OFFSET 2.175598 0.064499 -2.662899
		CHANNELS 6 Xposition Yposition Zposition Zrotation Xrotation Yrotation
		JOINT LeftKnee
		{
			OFFSET 0.000000 -0.000004 -18.585800
			CHANNELS 6 Xposition Yposition Zposition Zrotation Xrotation Yrotation
			JOINT LeftAnkle
			{
				OFFSET 0.000000 0.000000 -18.979500
				CHANNELS 6 Xposition Yposition Zposition Zrotation Xrotation Yrotation
				End Site
				{
					OFFSET 0.000000 -9.264000 0.000000
				}
			}
		}
	}
	JOINT RightHip
	{
		OFFSET -2.092400 -0.058102 -2.581200
		CHANNELS 6 Xposition Yposition Zposition Zrotation Xrotation Yrotation
		JOINT RightKnee
		{
			OFFSET 0.000000 -0.000004 -18.665001
			CHANNELS 6 Xposition Yposition Zposition Zrotation Xrotation Yrotation
			JOINT RightAnkle
			{
				OFFSET 0.000000 0.000000 -18.566601
				CHANNELS 6 Xposition Yposition Zposition Zrotation Xrotation Yrotation
				End Site
				{
					OFFSET 0.000000 -8.497601 0.000000
				}
			}
		}
	}
}
MOTION
Frames: 7
Frame Time: 0.041667
60.980900 38.208408 43.961895 2501.516895 3.813027 0.781764 -0.153497 1.163106 7.852407 19.180460 21.097543 -7.486861 0.000007 0.000000 3.343297 -19.467854 -3.714334 -2.124827 -0.000007 0.000009 7.785500 -2.593786 8.944858 0.823187 -0.000001 0.000004 2.173913 0.314161 -0.384249 -0.874987 2.676289 -1.652397 4.938297 -2.376864 -1.522805 3.491837 4.298994 0.000010 -0.000004 -402.555640 12.353654 327.696685 -0.000002 0.000001 -10.245108 355.343160 720.365572 720.147607 -0.000008 0.000011 -12.703302 1135.258965 -371.939427 412.170279 -2.534604 -1.686391 5.194998 12.794451 4.808342 -0.000521 -4.144107 0.000005 -0.000001 291.230360 249.744556 11.372752 0.000002 0.000004 -10.116501 -630.812120 -213.337885 -99.261213 0.000003 0.000006 -12.937798 -1467.942617 -148.036455 153.687330 2.175596 0.064501 -2.662897 -1031.939950 -29.650667 10.285123 -0.000004 0.000002 -18.585804 520.960931 -233.312678 -185.768660 -0.000007 -0.000001 -18.979511 725.726396 21.936611 -812.943650 -2.092392 -0.058102 -2.581198 1769.272204 -19.828160 -0.001789 0.000002 0.000001 -18.665009 -1615.146526 139.619216 -547.022310 0.000009 -0.000001 -18.566607 709.742551 15.638440 -321.049463
60.812702 38.224098 44.012291 2501.731090 3.393102 0.665053 -0.153495 1.163101 7.852407 18.955812 20.855317 -7.227716 0.000008 0.000005 3.343298 -19.323852 -3.722748 -2.106328 0.000004 0.000002 7.785496 -2.584408 8.989866 0.775039 -0.000005 0.000001 2.173909 0.284849 -0.296739 -0.884925 2.676300 -1.652403 4.938301 -2.408846 -1.446559 3.695829 4.299002 0.000009 -0.000004 -402.321993 13.988087 327.089427 -0.000007 0.000000 -10.245093 352.458825 721.153448 720.085753 -0.000006 -0.000004 -12.703300 1136.489929 -371.103794 412.322237 -2.534598 -1.686405 5.194999 12.234544 4.510004 0.097219 -4.144100 -0.000007 -0.000006 286.723582 249.160820 7.153579 0.000014 -0.000010 -10.116492 -630.993967 -203.915940 -99.974756 -0.000006 -0.000003 -12.937801 -1456.953990 -150.222839 154.513058 2.175600 0.064503 -2.662897 -1033.276700 -29.463168 9.466055 0.000006 -0.000002 -18.585804 522.961084 -232.445162 -186.131876 -0.000009 0.000007 -18.979515 724.657608 21.854042 -811.636024 -2.092395 -0.058099 -2.581195 1770.419894 -18.822171 0.548655 0.000002 0.000001 -18.665009 -1617.304429 140.538519 -546.333718 0.000007 0.000005 -18.566607 710.369180 15.948948 -321.010804
60.651909 38.224308 44.067596 2501.798190 2.929700 0.515508 -0.153496 1.163098 7.852407 18.862121 20.722266 -6.901989 0.000004 0.000006 3.343297 -19.200739 -3.735408 -2.093445 -0.000003 0.000004 7.785509 -2.525832 8.995882 0.664391 0.000005 0.000003 2.173899 0.259769 -0.063533 -0.865922 2.676287 -1.652391 4.938310 -2.344708 -1.435069 3.833549 4.298998 0.000008 -0.000003 -402.141649 15.685400 326.506921 -0.000004 0.000009 -10.245094 350.027360 721.783355 720.085479 -0.000009 0.000006 -12.703300 1137.279827 -370.292122 412.450098 -2.534611 -1.686396 5.195007 11.644137 4.607642 -0.399512 -4.144107 -0.000004 0.000000 282.921735 247.897071 3.542356 0.000003 -0.000003 -10.116499 -631.473283 -195.620115 -100.954779 0.000000 0.000005 -12.937801 -1447.010000 -152.291007 155.305688 2.175603 0.064499 -2.662900 -1034.553235 -29.064285 8.507188 -0.000007 -0.000006 -18.585808 526.868881 -230.810725 -187.734730 -0.000013 -0.000005 -18.979506 721.586099 22.117008 -809.683245 -2.092393 -0.058103 -2.581199 1771.911498 -17.726545 1.161640 0.000004 -0.000013 -18.665009 -1619.720567 141.551286 -545.602068 0.000002 0.000002 -18.566607 711.024223 16.291905 -320.917640
60.495907 38.210602 44.126289 2501.800813 2.441565 0.381301 -0.153499 1.163101 7.852405 18.833079 20.650483 -6.547266 0.000006 0.000002 3.343302 -19.154461 -3.768972 -2.094683 -0.000003 0.000013 7.785503 -2.355866 8.989584 0.455603 -0.000001 0.000009 2.173911 0.416935 -0.178231 -0.839422 2.676298 -1.652389 4.938306 -2.155150 -1.487983 3.909938 4.298998 0.000006 -0.000003 -401.933273 17.426111 325.942337 -0.000005 -0.000005 -10.245099 347.834569 722.273763 720.137225 -0.000003 0.000013 -12.703293 1137.880009 -369.543396 412.560255 -2.534595 -1.686387 5.195001 11.037885 4.328407 -0.529682 -4.144096 -0.000001 -0.000012 278.846025 246.974231 -0.421517 0.000008 -0.000015 -10.116497 -632.256951 -188.288972 -102.036524 -0.000003 0.000005 -12.937799 -1438.589852 -154.393503 155.525170 2.175599 0.064487 -2.662892 -1036.395419 -28.473214 7.174755 -0.000011 -0.000004 -18.585808 530.485548 -228.856102 -188.489739 -0.000004 0.000004 -18.979506 717.936538 22.542329 -804.452085 -2.092389 -0.058111 -2.581195 1773.320156 -16.593639 1.698997 -0.000004 -0.000013 -18.665003 -1621.828965 142.553288 -544.994072 0.000005 -0.000010 -18.566605 711.594899 16.606567 -320.899827
60.345703 38.184101 44.185894 2501.661367 1.947778 0.289067 -0.153495 1.163109 7.852402 18.953609 20.565976 -6.189786 0.000000 0.000002 3.343300 -19.208978 -3.790008 -2.110356 0.000000 -0.000001 7.785498 -2.065621 9.010498 0.176786 0.000004 -0.000005 2.173899 0.398547 -0.043329 -0.779417 2.676291 -1.652402 4.938296 -1.858225 -1.574085 3.943974 4.298994 0.000006 -0.000008 -401.693261 19.196844 325.390922 -0.000005 -0.000012 -10.245093 345.890834 722.643522 720.209898 -0.000007 0.000002 -12.703299 1138.311022 -368.806883 412.665468 -2.534601 -1.686406 5.194993 10.562461 4.175115 -0.714791 -4.144100 -0.000005 -0.000005 276.291534 245.819437 -2.872411 -0.000001 -0.000007 -10.116502 -632.873635 -182.072858 -103.151402 -0.000010 0.000004 -12.937803 -1431.169862 -156.377727 155.473547 2.175603 0.064495 -2.662901 -1038.409287 -27.716190 5.742552 -0.000003 -0.000002 -18.585800 533.188390 -226.903187 -188.167996 -0.000007 -0.000002 -18.979511 714.395331 22.724104 -796.247334 -2.092393 -0.058103 -2.581203 1774.850774 -15.415076 2.157699 0.000002 -0.000005 -18.665012 -1623.664155 143.543461 -544.545082 0.000000 -0.000001 -18.566605 711.976569 16.866228 -320.894308
60.206303 38.145500 44.244095 2501.611534 1.464398 0.199002 -0.153496 1.163106 7.852407 18.986051 20.448529 -5.848663 0.000001 -0.000000 3.343303 -19.302275 -3.807484 -2.129184 0.000004 0.000003 7.785497 -1.655164 9.052689 -0.104752 0.000004 0.000010 2.173906 0.481388 0.132132 -0.676034 2.676299 -1.652394 4.938295 -1.600119 -1.608792 4.003470 4.298998 -0.000002 0.000006 -401.288285 20.898852 324.742082 -0.000004 0.000007 -10.245102 344.103182 722.943067 720.297762 -0.000005 0.000000 -12.703295 1138.671328 -368.101407 412.765953 -2.534593 -1.686398 5.194997 10.202304 4.147076 -0.784360 -4.144094 -0.000003 0.000002 271.500757 244.682511 -7.124987 -0.000001 -0.000009 -10.116507 -636.874596 -168.359641 -104.667301 0.000002 -0.000007 -12.937801 -1415.836033 -158.044813 155.280499 2.175603 0.064497 -2.662898 -1040.544349 -26.830182 4.365565 -0.000004 0.000001 -18.585804 535.138437 -225.130330 -187.165024 -0.000006 0.000000 -18.979511 711.101103 22.243636 -786.061063 -2.092387 -0.058105 -2.581193 1776.282819 -14.243614 2.581714 0.000003 -0.000012 -18.665007 -1625.503279 144.492064 -544.138877 -0.000000 -0.000015 -18.566608 712.320319 17.100022 -320.782403
60.059505 38.074001 44.307297 2501.508153 0.833315 -0.024552 -0.153497 1.163105 7.852411 19.036804 20.310363 -5.381446 0.000004 -0.000006 3.343301 -19.493724 -3.911377 -2.154406 0.000001 -0.000002 7.785510 -0.971394 9.198638 -0.384063 0.000000 -0.000002 2.173910 0.702767 0.358370 -0.535926 2.676297 -1.652401 4.938302 -1.350149 -1.419018 4.085812 4.298994 -0.000004 0.000002 -401.060321 23.069601 323.845141 -0.000006 0.000002 -10.245096 342.580077 723.276817 720.508459 -0.000001 0.000002 -12.703300 1139.271838 -367.235202 412.898459 -2.534599 -1.686397 5.194997 9.838438 4.339303 -0.739318 -4.144105 0.000003 -0.000009 266.122857 243.154461 -11.822711 -0.000001 -0.000010 -10.116507 -638.444665 -167.943410 -106.240389 -0.000002 -0.000003 -12.937799 -1414.571082 -159.860659 154.912734 2.175593 0.064498 -2.662895 -1042.711541 -25.544767 3.051353 -0.000001 -0.000006 -18.585804 536.208099 -223.478544 -185.288470 -0.000002 0.000006 -18.979507 708.230402 20.171748 -773.474555 -2.092404 -0.058106 -2.581196 1778.186202 -12.771494 3.246551 0.000010 -0.000012 -18.665001 -1627.685552 145.652418 -543.808296 -0.000004 -0.000018 -18.566607 712.629918 17.406848 -320.654651
